<?xml version="1.0" standalone="no"?>
<!DOCTYPE svg PUBLIC "-//W3C//DTD SVG 20010904//EN"
 "http://www.w3.org/TR/2001/REC-SVG-20010904/DTD/svg10.dtd">
<svg version="1.0" xmlns="http://www.w3.org/2000/svg"
 width="100.000000pt" height="100.000000pt" viewBox="0 0 100.000000 100.000000"
 preserveAspectRatio="xMidYMid meet">
<metadata>
Created by potrace 1.10, written by Peter Selinger 2001-2011
</metadata>
<g transform="translate(0.000000,100.000000) scale(0.100000,-0.100000)"
fill="#fff" stroke="none">
<path d="M172 682 l3 -208 39 -78 c44 -89 135 -189 229 -251 l58 -38 69 47
c95 65 171 151 217 243 l38 77 5 208 5 208 -333 0 -333 0 3 -208z m638 43 l0
-145 -310 0 -310 0 0 145 0 145 310 0 310 0 0 -145z m-395 -195 c-3 -5 -1 -10
4 -12 5 -1 12 -22 14 -45 5 -45 -9 -60 -41 -45 -43 20 -102 -3 -102 -39 0 -20
-8 -24 -25 -11 -17 11 -46 85 -49 124 l-4 36 104 0 c57 0 102 -4 99 -8z m130
-7 c-4 -10 -12 -35 -18 -55 -10 -34 -9 -39 17 -64 25 -26 30 -27 64 -17 20 6
45 14 55 18 15 6 17 1 17 -44 0 -55 -2 -57 -40 -36 -34 20 -90 20 -90 0 0 -8
-7 -15 -15 -15 -9 0 -15 -9 -15 -25 0 -14 7 -42 15 -62 8 -19 15 -37 15 -39 0
-2 -22 -4 -50 -4 -27 0 -50 2 -50 4 0 2 7 20 15 39 8 20 15 48 15 62 0 16 -6
25 -15 25 -8 0 -15 7 -15 15 0 20 -56 20 -90 0 -38 -21 -40 -19 -40 36 0 45 2
50 18 44 9 -4 34 -12 54 -18 34 -10 39 -9 64 17 26 25 27 30 17 64 -6 20 -14
45 -18 55 -6 15 -1 17 45 17 46 0 51 -2 45 -17z m234 8 c11 -7 11 -18 1 -62
-13 -58 -23 -75 -51 -89 -12 -7 -19 -5 -23 6 -4 10 -2 13 7 8 6 -4 1 4 -12 19
-20 22 -61 34 -61 17 0 -8 -54 -6 -68 4 -9 5 -11 18 -6 39 13 65 17 67 112 67
48 0 93 -4 101 -9z m-341 -256 c2 -12 -1 -31 -5 -43 l-9 -23 -34 23 c-43 29
-50 55 -18 60 47 8 63 3 66 -17z m211 10 c13 -8 -5 -29 -47 -52 -29 -17 -33
-16 -25 4 4 10 2 14 -4 10 -8 -5 -9 2 -4 45 1 9 64 4 80 -7z"/>
<path d="M346 835 c-3 -8 -13 -15 -22 -15 -13 0 -14 -3 -4 -15 10 -12 10 -15
-3 -15 -10 0 -14 -6 -11 -15 4 -9 0 -15 -7 -15 -12 0 -12 -2 0 -9 8 -5 11 -16
8 -25 -8 -20 2 -48 14 -40 6 3 17 0 26 -7 12 -11 17 -11 27 2 6 9 17 14 24 12
7 -3 10 1 6 11 -4 11 -1 16 10 16 9 0 16 8 16 20 0 11 4 20 9 20 13 0 10 42
-4 56 -8 8 -69 34 -80 34 -2 0 -5 -7 -9 -15z m50 -56 l29 -11 -30 -13 c-16 -7
-24 -14 -17 -14 21 -1 3 -21 -19 -21 -15 0 -20 6 -17 23 2 16 9 21 26 20 13
-2 21 1 17 7 -3 6 -13 10 -21 10 -8 0 -14 5 -14 11 0 5 4 8 9 5 4 -3 21 -10
37 -17z"/>
<path d="M527 843 c-41 -5 -57 -24 -37 -48 15 -18 66 -19 143 -4 61 13 98 6
79 -13 -7 -7 -52 -12 -109 -13 -125 -3 -156 -11 -149 -37 3 -14 -1 -22 -15
-25 -10 -3 -16 -9 -13 -14 3 -5 -3 -12 -13 -15 -10 -3 -26 -10 -35 -15 -22
-11 -48 -12 -48 0 0 5 -6 9 -12 8 -44 -1 -58 4 -58 23 0 11 -5 20 -11 20 -5 0
-7 -5 -4 -10 4 -7 -3 -9 -22 -4 -27 6 -27 6 -8 -9 18 -15 18 -16 3 -17 -10 0
-18 -5 -18 -11 0 -6 7 -9 15 -5 11 4 15 -1 15 -17 1 -21 1 -21 11 -3 7 12 14
14 18 8 4 -6 37 -14 74 -16 54 -5 67 -3 67 9 0 8 12 18 28 21 15 4 53 20 84
35 70 35 75 36 90 4 11 -24 14 -25 68 -19 38 4 60 3 64 -5 5 -7 -1 -11 -13
-11 -12 0 -21 -4 -21 -9 0 -5 9 -7 19 -4 16 4 19 1 15 -19 -5 -20 -4 -21 6 -6
6 10 17 15 27 11 11 -4 14 -3 9 5 -4 8 0 12 11 13 14 0 13 2 -5 10 -13 5 -21
12 -19 17 9 13 -21 45 -38 39 -8 -4 -15 -2 -15 4 0 6 -7 6 -20 -1 -23 -12 -40
-6 -40 16 0 10 12 14 39 14 22 0 44 6 51 15 7 8 19 15 27 15 8 0 11 5 8 10 -4
6 -15 8 -26 5 -10 -4 -19 -2 -19 4 0 19 -40 22 -91 7 -69 -21 -128 -21 -136
-1 -8 23 -1 26 42 14 29 -8 49 -8 79 1 35 11 38 14 21 21 -21 8 -53 8 -118 2z"/>
<path d="M250 826 c0 -16 -3 -17 -12 -8 -7 7 -16 12 -22 12 -6 0 -5 -5 2 -12
9 -9 7 -15 -6 -25 -15 -13 -15 -13 7 -7 19 5 23 3 18 -10 -7 -18 37 -75 48
-64 4 4 2 21 -5 38 -10 23 -10 34 -1 43 6 6 11 15 11 21 0 5 -3 6 -7 3 -3 -4
-12 1 -19 11 -13 16 -13 16 -14 -2z"/>
<path d="M546 691 c-4 -5 -3 -16 0 -25 7 -18 -20 -23 -31 -6 -3 6 -11 10 -16
10 -6 0 -7 -4 -4 -10 3 -5 -4 -11 -17 -11 -16 -1 -18 -3 -6 -6 11 -3 15 -10
11 -21 -5 -14 -3 -15 7 -5 11 10 16 9 27 -5 12 -16 13 -16 6 2 -5 16 -3 18 20
12 16 -4 27 -2 27 4 0 5 9 10 19 10 18 0 19 2 5 30 -15 29 -37 39 -48 21z"/>
<path d="M474 376 c-10 -26 4 -48 28 -44 33 4 33 52 0 56 -13 2 -25 -3 -28
-12z"/>
</g>
</svg>
