<?xml version="1.0" standalone="no"?>
<!DOCTYPE svg PUBLIC "-//W3C//DTD SVG 20010904//EN"
 "http://www.w3.org/TR/2001/REC-SVG-20010904/DTD/svg10.dtd">
<svg version="1.0" xmlns="http://www.w3.org/2000/svg"
 width="300.000000pt" height="200.000000pt" viewBox="0 0 300.000000 200.000000"
 preserveAspectRatio="xMidYMid meet">
<metadata>
Created by potrace 1.10, written by Peter Selinger 2001-2011
</metadata>
<g transform="translate(0.000000,200.000000) scale(0.100000,-0.100000)"
fill="#000000" stroke="none">
<path d="M2436 1651 c-51 -22 -32 -36 22 -17 37 13 41 13 47 -2 8 -21 18 -87
19 -124 0 -16 4 -28 8 -28 5 0 6 -21 4 -47 -3 -27 -5 -55 -5 -64 -1 -15 -82
-49 -120 -49 -9 0 -29 -7 -45 -15 -15 -8 -38 -17 -50 -19 -47 -9 -82 -19 -93
-28 -7 -6 -13 -4 -16 4 -4 11 -6 10 -6 0 -1 -7 -5 -10 -11 -7 -5 3 -10 1 -10
-4 0 -6 -7 -11 -15 -11 -9 0 -53 -12 -98 -27 -102 -34 -101 -34 -108 -3 -6 24
-7 23 -8 -6 0 -17 -7 -31 -13 -32 -22 -1 -62 -11 -83 -21 -11 -4 -32 -13 -47
-19 l-28 -11 6 127 c3 70 7 132 9 137 1 6 44 24 95 40 50 16 87 31 81 33 -21
7 -11 20 21 24 29 5 30 4 12 -10 -18 -13 -18 -14 6 -7 48 15 125 45 103 41
-29 -5 -29 0 -2 15 16 8 23 8 28 0 5 -8 18 -7 47 3 21 8 33 15 27 15 -7 1 -13
10 -13 21 0 19 -2 19 -22 7 -13 -8 -99 -40 -193 -72 -93 -32 -174 -62 -180
-68 -7 -7 -6 -8 2 -3 6 3 14 2 17 -3 3 -5 -3 -11 -14 -14 -15 -4 -20 0 -20 14
0 16 -2 18 -14 7 -8 -8 -10 -15 -4 -19 6 -4 5 -10 -3 -15 -7 -4 -14 -3 -17 4
-2 7 -8 12 -14 12 -6 0 -8 -7 -4 -15 3 -8 1 -15 -3 -15 -5 0 -11 4 -13 10 -1
5 -13 7 -26 3 -14 -3 -21 -11 -18 -19 3 -8 0 -14 -6 -14 -6 0 -9 -2 -6 -5 2
-3 31 4 63 15 l58 20 -7 -128 c-7 -130 -17 -159 -52 -145 -8 3 -14 0 -14 -6 0
-6 -7 -8 -15 -5 -8 4 -15 2 -15 -4 0 -5 -11 -12 -23 -14 -23 -4 -24 -2 -20 36
3 23 8 55 11 71 4 17 4 68 1 115 -3 47 -6 79 -7 73 -1 -7 -9 -13 -17 -13 -8 0
-15 -6 -15 -14 0 -8 -14 -19 -31 -25 -41 -14 -42 -14 -35 4 3 8 1 15 -4 15 -6
0 -10 -4 -10 -10 0 -5 -8 -10 -17 -10 -16 0 -16 -2 -3 -10 11 -7 2 -8 -27 -4
-39 6 -43 5 -43 -15 0 -11 -4 -21 -9 -21 -5 0 -17 -3 -27 -7 -11 -4 -15 -3
-10 5 3 6 2 13 -4 17 -6 3 -13 -2 -17 -12 -7 -18 -22 -33 -35 -33 -4 0 -5 7
-2 15 4 8 1 15 -4 15 -6 0 -13 -9 -17 -19 -6 -20 -35 -37 -35 -22 0 5 6 12 13
14 7 4 6 6 -4 6 -13 1 -18 -14 -24 -74 -4 -46 -11 -75 -18 -75 -9 0 -9 -2 -1
-8 10 -6 4 -112 -8 -148 -4 -13 4 -16 25 -8 10 3 20 4 24 1 3 -3 12 1 21 9 8
9 23 13 33 11 10 -3 20 0 21 5 2 6 18 11 36 12 18 0 32 4 32 8 0 7 60 23 74
19 5 -1 12 2 15 8 6 9 44 21 191 60 36 10 72 20 80 24 8 3 110 34 225 68 510
148 509 148 533 175 18 20 21 33 16 67 -7 57 -35 229 -40 245 -5 17 -41 14
-88 -7z m-796 -369 l0 -58 -37 -11 -38 -11 36 5 c34 4 36 3 33 -19 -2 -12 -6
-43 -9 -68 -5 -38 -9 -46 -28 -47 -12 -1 -32 -8 -44 -14 -13 -7 -25 -10 -28
-7 -3 3 -3 35 1 72 5 50 11 66 23 67 13 1 12 2 -2 6 -11 3 -16 10 -13 20 3 8
6 32 6 53 0 36 3 39 43 53 23 9 45 16 50 16 4 1 7 -25 7 -57z m-114 -13 c-3
-17 -6 -42 -6 -54 0 -16 -9 -27 -27 -34 l-28 -11 29 5 c28 6 28 5 22 -26 -3
-17 -6 -49 -6 -70 0 -29 -4 -39 -20 -43 -63 -18 -58 -23 -52 51 2 37 8 69 11
70 3 2 5 29 3 62 -4 57 -3 59 25 69 49 18 56 15 49 -19z m-87 -54 c-1 -37 -6
-55 -15 -55 -7 0 -19 -3 -28 -6 -13 -5 -16 3 -16 49 0 44 3 56 18 60 40 11 43
8 41 -48z m-70 -11 c-2 -26 -9 -53 -17 -60 -9 -9 -9 -14 -2 -14 8 0 9 -17 5
-57 -9 -80 -12 -89 -34 -90 -20 -2 -21 4 -6 99 4 23 0 29 -21 34 -24 6 -26 9
-19 53 8 53 12 61 28 61 8 0 11 -17 9 -55 -2 -30 0 -55 5 -55 4 0 7 23 6 50
-1 33 4 56 14 65 25 26 34 17 32 -31z m60 -86 c-1 -60 -15 -113 -28 -110 -7 1
-20 -3 -28 -10 -13 -11 -15 -7 -10 32 3 25 6 59 6 77 1 30 10 38 49 42 7 1 12
-11 11 -31z m-133 -60 c-3 -29 -6 -62 -6 -74 0 -12 -6 -21 -15 -21 -11 0 -15
11 -15 36 0 65 12 111 28 111 12 0 14 -10 8 -52z"/>
<path d="M2278 1598 c-32 -11 -58 -24 -58 -29 0 -5 5 -9 10 -9 6 0 10 4 10 10
0 5 7 7 15 4 8 -4 15 -1 15 6 0 6 4 8 10 5 5 -3 20 0 32 7 13 7 29 11 36 10 6
-2 12 2 12 8 0 13 -14 11 -82 -12z"/>
<path d="M1960 1375 c0 -37 -4 -55 -12 -55 -10 0 -10 -2 -1 -8 6 -4 13 -21 16
-37 2 -17 5 12 6 63 0 50 -1 92 -4 92 -3 0 -5 -25 -5 -55z"/>
<path d="M1093 1344 c-7 -3 -17 -21 -23 -40 -10 -29 -9 -39 4 -59 22 -33 20
-44 -9 -67 -29 -23 -32 -50 -8 -69 15 -13 15 -12 3 10 -11 21 -10 23 4 18 10
-4 14 -3 11 2 -3 5 -1 12 4 15 5 4 12 -4 14 -16 4 -20 4 -19 6 5 2 40 2 41 13
54 6 7 14 10 19 7 5 -3 12 3 15 13 3 10 10 26 15 35 28 53 -16 113 -68 92z
m40 -75 c-3 -10 -12 -19 -19 -19 -18 0 -19 47 -1 53 16 5 26 -11 20 -34z"/>
<path d="M1233 1230 c-3 -11 -9 -20 -14 -20 -5 0 -6 6 -3 14 4 11 0 13 -17 9
-12 -3 -24 -14 -26 -25 -3 -10 -11 -18 -17 -18 -8 0 -12 -29 -12 -87 -1 -54 1
-76 6 -58 l7 30 5 -30 5 -30 2 32 c0 17 -5 34 -11 36 -10 4 -10 6 0 6 7 1 10
6 7 11 -3 6 -1 10 4 10 6 0 11 15 12 33 1 17 5 43 9 57 7 22 8 21 11 -15 1
-32 3 -34 6 -12 2 15 9 27 15 27 7 0 8 -16 3 -47 -4 -25 -9 -67 -11 -92 -2
-25 -6 -67 -10 -93 -4 -32 -2 -48 5 -48 6 0 11 19 11 46 0 78 22 239 34 246 7
5 7 8 -3 8 -11 0 -11 3 -1 15 10 12 10 15 0 15 -6 0 -14 -9 -17 -20z"/>
<path d="M990 1160 l-45 -18 -7 -83 c-3 -46 -9 -109 -12 -140 -5 -56 -5 -57
19 -55 22 1 25 5 25 42 0 23 2 57 5 75 4 26 3 30 -4 14 -5 -11 -10 -41 -10
-67 -1 -28 -6 -48 -12 -48 -7 0 -9 34 -4 112 8 130 23 188 24 91 1 -35 5 -63
10 -63 6 0 12 -24 14 -52 l3 -53 2 58 c1 34 -2 57 -9 57 -12 0 -10 108 3 116
4 3 9 -12 9 -33 1 -28 3 -31 6 -13 3 14 8 27 12 30 11 9 31 50 24 49 -5 -1
-28 -9 -53 -19z"/>
<path d="M905 1120 c-3 -11 -11 -20 -16 -20 -6 0 -7 5 -4 10 3 6 2 10 -4 10
-5 0 -14 -7 -19 -16 -6 -11 -11 -13 -16 -5 -11 17 -24 13 -31 -8 -3 -10 -15
-21 -26 -24 -16 -4 -18 -3 -8 9 18 22 -5 16 -31 -8 -14 -13 -25 -18 -27 -11
-3 8 -12 8 -31 -2 -30 -14 -39 -18 -189 -66 -74 -23 -104 -38 -111 -53 -13
-28 -41 -159 -37 -167 3 -3 37 0 77 8 40 7 87 16 103 19 17 3 44 7 60 9 17 2
78 13 138 25 59 11 112 18 117 15 6 -3 10 -1 10 5 0 6 10 10 21 8 20 -3 22 2
25 67 2 39 4 94 4 123 -1 28 3 52 7 52 5 0 9 9 10 20 1 11 -2 20 -7 20 -5 0
-12 -9 -15 -20z m-46 -86 c-2 -32 -7 -44 -18 -45 -11 0 -12 -2 -3 -6 13 -5 17
-91 4 -108 -20 -27 -32 -13 -34 38 -1 37 -2 42 -5 17 -6 -64 -12 -78 -30 -76
-14 2 -17 12 -14 52 1 27 8 52 14 56 8 5 8 8 1 8 -6 0 -8 16 -5 42 4 31 11 44
25 46 17 4 18 -1 14 -42 -3 -25 -2 -46 3 -46 5 0 9 23 9 50 0 29 5 50 11 50 5
0 7 4 4 10 -3 6 1 7 10 4 12 -5 15 -18 14 -50z m36 -46 c-8 -108 -10 -118 -27
-118 -6 0 -8 21 -4 58 3 31 5 81 5 110 0 41 3 52 16 52 14 0 16 -12 10 -102z
m-141 2 c-3 -30 -7 -64 -9 -75 -2 -11 -4 -30 -4 -42 -1 -18 -7 -23 -26 -23
-23 0 -24 3 -23 45 1 25 5 45 8 45 3 0 6 15 6 33 3 61 7 72 31 72 21 0 22 -3
17 -55z m-68 -55 c-10 -95 -10 -95 -37 -95 -24 0 -28 5 -32 33 -4 31 -4 31 -5
-5 -1 -25 -7 -38 -16 -38 -8 0 -22 -3 -32 -7 -16 -6 -17 0 -11 72 6 85 9 90
49 100 26 7 26 6 17 -32 -12 -51 -11 -53 6 -47 8 4 12 10 9 15 -3 5 -2 24 2
43 4 26 13 38 33 45 14 5 26 10 26 10 0 1 -4 -42 -9 -94z m-141 -7 c-13 -113
-15 -119 -33 -109 -12 7 -22 5 -34 -6 -17 -15 -18 -14 -19 18 l-1 34 -7 -30
c-4 -22 -12 -30 -28 -31 -23 -1 -40 35 -22 47 6 3 10 12 9 20 -4 25 0 35 20
57 30 32 38 27 30 -18 -4 -22 -4 -37 0 -35 4 3 10 22 14 43 5 33 11 41 38 49
18 6 34 11 36 12 1 1 0 -23 -3 -51z"/>
<path d="M1186 1073 c-4 -38 -9 -90 -13 -118 -3 -27 -2 -47 2 -42 5 4 9 17 10
30 1 12 5 61 9 110 5 48 6 87 4 87 -3 0 -8 -30 -12 -67z"/>
<path d="M1039 1038 c-1 -40 -2 -41 -9 -13 -9 37 -10 37 -15 -52 -3 -41 -1
-74 4 -78 6 -3 9 9 7 32 -4 43 2 65 15 57 5 -3 9 18 9 45 0 62 -10 68 -11 9z"/>
<path d="M1128 979 c-1 -19 -3 -61 -4 -94 -1 -33 -10 -89 -18 -125 -11 -46
-14 -52 -10 -20 12 91 14 206 4 190 -6 -8 -10 -31 -9 -50 1 -19 -1 -51 -4 -70
-13 -73 -15 -150 -5 -144 7 5 8 -16 4 -62 -17 -168 -17 -164 3 -89 24 91 26
53 2 -45 -14 -56 -20 -69 -23 -50 -4 20 -6 18 -7 -10 -2 -41 -15 -68 -25 -51
-4 6 -3 11 1 11 9 0 16 53 17 128 1 23 4 42 9 42 10 0 9 58 -1 64 -5 3 -8 -8
-7 -24 1 -16 -2 -27 -7 -24 -4 3 -8 -16 -8 -43 0 -61 -11 -124 -20 -118 -3 2
-3 32 1 67 10 80 11 128 5 258 -3 58 -5 117 -5 133 -1 16 -7 27 -15 27 -8 0
-17 6 -19 13 -4 9 -6 9 -6 0 -1 -6 3 -14 8 -17 5 -3 6 -21 2 -38 -7 -35 -6
-40 3 -158 6 -69 10 -241 7 -282 -1 -11 -15 -21 -40 -28 -45 -12 -76 -40 -44
-40 10 0 25 6 32 13 11 9 14 9 18 0 7 -18 23 -16 40 5 14 16 14 16 9 0 -5 -15
1 -18 39 -18 44 0 44 0 39 30 -4 19 3 54 21 104 23 63 25 79 16 108 -6 18 -11
51 -12 73 -1 46 26 178 43 204 12 20 3 75 -12 66 -6 -4 -10 11 -9 37 1 40 2
41 9 13 7 -29 8 -29 9 -4 0 15 -6 32 -14 39 -13 11 -15 7 -17 -21z"/>
<path d="M1839 430 c-2 -14 -10 -24 -17 -22 -15 3 -17 -64 -2 -73 9 -6 14 8
11 28 0 4 5 7 12 8 6 0 3 4 -8 9 -19 8 -19 9 1 9 12 1 25 8 28 17 3 8 2 12 -3
9 -5 -3 -11 5 -13 17 -4 22 -4 22 -9 -2z"/>
<path d="M1144 385 c3 -9 0 -15 -10 -15 -9 0 -14 -8 -13 -22 4 -42 -1 -60 -14
-55 -10 4 -13 -12 -13 -63 0 -38 4 -66 8 -64 5 3 11 -2 15 -11 3 -10 0 -21 -8
-26 -9 -6 -10 -9 -2 -9 13 0 33 31 33 52 0 9 -3 9 -10 -2 -7 -11 -10 3 -10 46
0 65 4 76 26 67 12 -4 13 -18 9 -64 -6 -60 -2 -67 39 -60 4 1 14 -3 20 -9 16
-12 26 -3 26 24 0 17 -2 18 -10 6 -8 -12 -10 -11 -10 8 0 17 6 22 24 22 24 0
40 27 36 63 -2 22 37 37 66 26 12 -4 25 -5 28 -2 3 4 13 -2 22 -13 8 -10 13
-14 10 -7 -4 7 2 12 14 12 11 1 29 1 40 2 11 0 22 4 25 10 4 5 18 8 33 8 l27
-1 -30 -8 c-30 -8 -28 -9 25 -14 8 -1 21 3 29 9 11 7 13 7 7 -2 -4 -8 -2 -13
8 -13 8 0 17 4 21 9 3 6 17 6 35 1 16 -5 32 -5 34 -1 6 10 66 1 66 -9 0 -4 18
-4 40 0 22 4 38 4 35 0 -2 -3 42 -8 98 -9 56 -1 134 -4 172 -7 39 -2 89 -5
113 -5 28 0 40 -4 36 -11 -5 -7 -2 -8 7 -3 17 11 59 16 59 6 0 -4 9 -7 20 -8
11 -1 18 2 16 6 -3 4 5 8 17 8 17 2 19 0 7 -7 -10 -6 1 -8 35 -7 28 2 62 0 78
-4 17 -5 25 -4 21 2 -3 6 6 7 24 4 16 -2 51 -5 78 -6 27 -1 60 -6 73 -11 19
-7 22 -6 13 5 -8 10 -6 13 9 13 10 0 19 -7 19 -14 0 -12 3 -12 15 -2 12 10 15
10 15 -1 0 -9 3 -10 8 -4 11 16 54 18 63 3 7 -10 9 -10 9 0 0 16 27 16 33 -1
4 -9 6 -9 6 1 1 19 21 14 22 -5 0 -15 2 -15 9 2 5 11 9 15 9 9 1 -7 8 -15 17
-18 14 -5 15 -4 4 9 -15 18 0 20 19 3 11 -10 13 -10 7 0 -4 6 -3 12 3 12 5 0
12 -8 14 -17 4 -16 5 -16 6 1 1 12 6 16 16 12 9 -3 15 0 15 9 0 18 -62 23
-375 30 -226 5 -414 14 -670 31 -49 3 -94 6 -100 6 -161 -1 -207 -1 -240 3
-22 2 -55 4 -72 4 -27 1 -33 5 -34 24 -1 21 -1 21 -9 -3 -7 -21 -8 -18 -9 18
-1 24 -5 41 -10 37 -5 -3 -8 -21 -6 -41 l3 -35 -44 2 c-24 2 -44 8 -44 13 0 8
-2 8 -8 0 -6 -9 -24 -10 -75 -5 -5 1 -5 7 -1 13 11 18 12 48 2 54 -4 3 -8 -5
-9 -18 l0 -23 -10 24 c-5 13 -12 22 -14 19 -3 -3 -1 -18 5 -33 6 -15 9 -30 6
-32 -10 -11 -44 9 -49 28 -7 26 -22 18 -48 -25 -19 -31 -19 -31 -21 -6 0 14 0
35 1 48 1 14 -4 22 -15 22 -10 0 -14 -5 -10 -15z m85 -75 c6 -22 16 -40 21
-40 5 0 8 -8 7 -19 0 -10 -8 -18 -16 -17 -9 1 -21 -14 -28 -34 l-13 -35 3 33
c2 17 -1 32 -6 32 -6 0 -7 17 -3 43 4 23 8 50 9 60 2 29 13 19 26 -23z"/>
<path d="M1704 373 c-3 -10 -9 -25 -14 -33 -6 -12 -2 -16 15 -18 15 -1 24 5
28 18 3 13 1 18 -6 13 -6 -4 -8 2 -5 15 7 26 -10 30 -18 5z"/>
<path d="M474 335 c-4 -22 -8 -47 -9 -55 -1 -8 -2 -23 -3 -33 -1 -10 -6 -16
-11 -12 -5 3 -12 1 -16 -5 -7 -11 0 -12 33 -4 19 5 22 12 18 36 -3 17 0 41 5
55 5 15 6 31 0 41 -7 13 -11 8 -17 -23z"/>
<path d="M511 321 c-7 -5 -10 -14 -6 -20 4 -7 1 -18 -5 -26 -10 -11 -10 -15
-1 -15 7 0 10 -4 7 -9 -4 -5 9 -6 29 -1 19 4 37 5 40 2 3 -4 10 -1 14 6 4 7
29 14 54 15 26 1 47 5 47 10 0 4 22 7 48 7 26 0 53 5 59 11 14 14 36 2 27 -14
-3 -7 0 -5 8 3 7 8 19 15 26 16 6 1 21 2 33 3 11 0 17 5 14 11 -4 6 -30 7 -68
3 -34 -4 -85 -7 -114 -7 -28 0 -50 -4 -47 -7 5 -8 -27 -22 -34 -14 -3 3 0 5 7
5 7 0 9 5 6 10 -4 7 -11 8 -18 1 -7 -5 -30 -13 -52 -17 -22 -4 -34 -9 -27 -11
16 -6 5 -23 -15 -23 -12 0 -14 7 -10 35 6 36 2 41 -22 26z"/>
<path d="M272 293 c-34 -16 -42 -33 -17 -33 9 0 18 -6 21 -14 6 -15 104 -18
104 -3 0 5 8 6 18 3 13 -4 19 -1 19 9 0 8 -7 15 -14 15 -8 0 -11 5 -8 10 3 6
-3 10 -14 10 -12 0 -20 -3 -20 -7 4 -27 -1 -35 -16 -23 -8 7 -15 18 -15 25 0
21 -25 24 -58 8z"/>
<path d="M5 268 c3 -13 7 -29 7 -35 1 -7 4 -11 6 -8 3 3 14 -3 25 -12 11 -10
17 -13 14 -6 -4 6 -3 14 3 18 12 7 4 25 -12 25 -5 0 -7 -8 -4 -17 5 -15 3 -15
-9 1 -8 11 -13 28 -9 38 4 12 0 18 -11 18 -13 0 -16 -5 -10 -22z"/>
<path d="M144 243 c1 -28 -4 -48 -11 -50 -8 -3 -11 3 -8 16 4 23 -5 27 -23 9
-19 -19 -14 -38 11 -38 18 0 19 -2 7 -10 -8 -5 -10 -10 -4 -10 6 0 17 7 24 15
7 8 27 19 44 24 25 7 26 9 9 10 -23 1 -29 17 -25 64 1 9 -4 17 -12 17 -9 0
-13 -14 -12 -47z"/>
<path d="M96 258 c-19 -27 -20 -38 -4 -38 6 0 8 3 5 7 -4 3 2 12 13 20 11 8
20 18 20 24 0 16 -18 10 -34 -13z"/>
<path d="M415 140 c-16 -11 -25 -20 -18 -20 6 0 15 5 18 10 11 18 27 10 22
-11 -3 -13 -1 -19 6 -16 7 3 10 11 8 18 -2 8 -4 20 -4 27 0 6 -1 12 -1 12 -1
0 -14 -9 -31 -20z"/>
<path d="M135 130 c-3 -6 -1 -10 5 -10 6 0 8 -5 5 -10 -4 -6 -10 -8 -14 -5 -5
2 -16 -2 -27 -9 -16 -12 -14 -13 19 -12 20 1 40 6 44 11 5 4 2 5 -4 1 -7 -4
-13 -3 -13 3 0 5 4 11 9 13 5 2 3 9 -4 15 -9 8 -16 9 -20 3z"/>
</g>
</svg>
