<?xml version="1.0" standalone="no"?>
<!DOCTYPE svg PUBLIC "-//W3C//DTD SVG 20010904//EN"
 "http://www.w3.org/TR/2001/REC-SVG-20010904/DTD/svg10.dtd">
<svg version="1.0" xmlns="http://www.w3.org/2000/svg"
 width="200.000000pt" height="200.000000pt" viewBox="0 0 200.000000 200.000000"
 preserveAspectRatio="xMidYMid meet">
<metadata>
Created by potrace 1.10, written by Peter Selinger 2001-2011
</metadata>
<g transform="translate(0.000000,200.000000) scale(0.100000,-0.100000)"
fill="#fff" stroke="none">
<path d="M892 1683 c-158 -70 -237 -229 -202 -405 16 -82 41 -130 103 -195 46
-49 168 -123 203 -123 8 0 14 -17 16 -49 l3 -49 91 57 c49 31 109 68 133 82
l42 25 -131 82 c-71 45 -133 82 -136 82 -3 0 -4 -18 -2 -41 l4 -41 -39 6 c-44
7 -106 37 -154 73 -72 55 -103 183 -69 281 9 24 11 44 6 47 -10 6 8 55 21 55
10 0 23 -40 15 -47 -3 -4 -6 2 -6 12 0 14 -3 15 -15 5 -20 -17 -7 -32 51 -59
25 -12 42 -26 39 -31 -8 -13 -8 -140 0 -173 6 -24 4 -27 -16 -27 -24 -1 -23
-1 6 -26 37 -31 105 -67 112 -60 3 3 -1 16 -10 29 -16 24 -15 25 21 31 20 3
59 6 86 6 43 0 48 -2 43 -20 -3 -13 3 -24 20 -35 14 -9 26 -15 27 -13 1 2 6
12 12 24 8 20 11 20 43 7 l33 -14 -21 -23 -22 -24 22 -16 c22 -15 25 -14 56
16 19 18 46 57 61 88 24 48 27 67 27 150 0 114 -22 168 -96 241 -69 68 -127
92 -229 96 -76 3 -92 1 -148 -24z m188 -4 c8 -1 24 -9 35 -19 27 -22 143 -100
150 -100 4 0 3 6 0 13 -4 6 0 3 9 -7 8 -10 13 -23 10 -27 -6 -11 -34 -12 -33
-1 3 19 -3 20 -36 6 -47 -19 -48 -19 -64 19 -21 47 -43 71 -53 55 -6 -10 -8
-10 -8 -1 0 15 -42 58 -55 57 -23 -1 -65 -28 -65 -41 0 -7 -5 -13 -11 -13 -5
0 -7 6 -4 13 4 6 -7 -3 -24 -22 -17 -19 -33 -47 -37 -63 -5 -25 -10 -29 -27
-23 -12 4 -29 7 -38 8 -38 3 12 76 64 93 9 3 17 10 17 15 0 6 5 7 10 4 6 -3
10 1 10 9 0 9 3 16 8 17 4 0 17 2 29 3 13 2 26 6 30 10 5 4 21 5 38 2 16 -4
37 -7 45 -7z m2 -106 c32 -57 49 -74 56 -55 2 7 8 12 13 12 6 0 7 -4 4 -10 -4
-6 7 -8 27 -5 29 5 31 4 11 -6 -12 -6 -24 -20 -26 -30 -5 -17 -9 -18 -31 -8
-14 7 -26 16 -26 21 0 4 -38 8 -85 8 -47 0 -85 3 -85 6 0 10 60 127 73 142 13
16 22 6 69 -75z m-158 -84 c-3 -5 5 -9 18 -10 20 -1 19 -2 -9 -15 -30 -13 -35
-12 -53 6 -25 25 -25 29 3 39 23 9 51 -4 41 -20z m372 -14 c30 -73 28 -140 -6
-231 l-9 -24 -44 21 -44 22 1 81 c0 44 -2 93 -7 109 -6 22 -4 27 10 27 10 1
29 7 43 15 36 20 39 19 56 -20z m-157 -107 c-2 -85 0 -92 20 -99 11 -5 21 -13
21 -19 0 -6 -4 -8 -10 -5 -5 3 -10 2 -10 -4 0 -5 6 -11 13 -14 6 -3 1 -4 -13
-4 -29 1 -63 27 -35 27 29 0 10 24 -26 32 -32 8 -136 3 -163 -8 -17 -6 -29 78
-20 134 l6 39 67 -4 c36 -3 82 -1 101 5 19 6 39 11 43 11 5 1 7 -40 6 -91z
m-319 -222 c0 4 8 0 18 -9 10 -10 22 -14 27 -10 4 5 5 0 2 -9 -3 -10 -1 -20 5
-24 7 -4 8 -3 4 4 -9 16 -3 15 39 -2 19 -8 35 -13 35 -10 0 3 9 0 21 -6 16 -9
24 -8 38 4 10 9 21 13 26 9 4 -5 5 -2 1 5 -4 7 -1 15 8 18 18 7 122 -49 119
-64 -2 -6 3 -9 11 -6 7 3 19 -2 26 -11 7 -9 8 -15 2 -15 -6 0 -17 -7 -25 -15
-8 -8 -21 -16 -28 -17 -7 -2 -27 -15 -43 -30 -34 -30 -45 -28 -75 12 -12 17
-26 30 -32 30 -17 0 -112 49 -139 71 -14 11 -19 17 -11 13 9 -5 12 -3 7 5 -4
6 -12 9 -17 6 -13 -9 -59 47 -53 64 3 10 1 11 -9 3 -10 -8 -13 -5 -15 16 l-2
27 30 -33 c17 -18 30 -29 30 -26z"/>
<path d="M420 775 c0 -10 10 -15 30 -15 l30 0 0 -90 c0 -73 3 -90 15 -90 12 0
15 17 15 90 l0 90 30 0 c20 0 30 5 30 15 0 12 -15 15 -75 15 -60 0 -75 -3 -75
-15z"/>
<path d="M600 685 c0 -87 3 -105 15 -105 11 0 15 12 15 45 0 38 3 45 20 45 12
0 29 -16 46 -45 14 -25 32 -45 40 -45 19 0 17 8 -11 54 -22 36 -22 41 -8 51
23 17 21 74 -2 91 -10 8 -40 14 -67 14 l-48 0 0 -105z m104 59 c9 -24 -12 -44
-45 -44 -26 0 -29 4 -29 30 0 27 3 30 34 30 22 0 36 -6 40 -16z"/>
<path d="M810 693 c-19 -54 -36 -101 -38 -105 -2 -5 3 -8 12 -8 9 0 22 15 30
33 11 28 19 34 46 34 27 0 35 -6 46 -34 8 -18 21 -33 29 -33 11 0 9 14 -12 68
-14 37 -31 83 -38 102 -21 61 -37 49 -75 -57z m70 -10 c0 -7 -11 -13 -24 -13
-24 0 -24 2 -14 32 10 29 12 30 25 13 7 -11 13 -25 13 -32z"/>
<path d="M980 685 c0 -87 3 -105 15 -105 12 0 15 18 15 105 0 87 -3 105 -15
105 -12 0 -15 -18 -15 -105z"/>
<path d="M1060 685 c0 -85 3 -105 15 -105 11 0 15 17 17 72 l3 71 48 -71 c26
-40 52 -72 57 -72 6 0 10 42 10 105 0 91 -2 105 -16 105 -14 0 -16 -10 -12
-70 3 -38 4 -70 2 -70 -2 0 -25 32 -50 70 -65 98 -74 94 -74 -35z"/>
<path d="M1270 685 c0 -87 3 -105 15 -105 12 0 15 18 15 105 0 87 -3 105 -15
105 -12 0 -15 -18 -15 -105z"/>
<path d="M1347 688 c1 -86 4 -104 18 -106 14 -3 15 6 9 72 -4 42 -4 76 -1 76
2 0 26 -34 53 -75 27 -41 55 -75 62 -75 9 0 12 28 12 105 0 87 -3 105 -15 105
-12 0 -15 -15 -15 -72 l0 -71 -50 71 c-28 40 -56 72 -63 72 -9 0 -12 -27 -10
-102z"/>
<path d="M1567 772 c-13 -14 -17 -38 -17 -90 0 -62 3 -73 22 -86 29 -20 77
-20 106 0 17 12 22 25 22 60 0 44 0 44 -35 44 -24 0 -35 -5 -35 -15 0 -8 9
-15 21 -15 16 0 20 -5 17 -27 -3 -30 -23 -39 -64 -29 -24 6 -25 10 -22 74 l3
67 33 3 c18 2 40 -2 48 -9 11 -9 18 -9 26 -1 18 18 -20 41 -68 42 -27 0 -46
-6 -57 -18z"/>
<path d="M281 758 c-1 -27 1 -28 44 -28 43 0 45 1 44 28 -2 23 -2 24 -6 5 -5
-27 -30 -31 -36 -5 -4 16 -5 16 -6 0 -2 -26 -29 -22 -34 5 -4 19 -4 18 -6 -5z"/>
<path d="M298 693 c29 -6 31 -43 2 -43 -11 0 -20 -4 -20 -10 0 -5 20 -10 45
-10 25 0 45 5 45 10 0 6 -9 10 -20 10 -14 0 -20 7 -20 21 0 16 5 20 20 16 11
-3 20 -1 20 4 0 5 -21 8 -47 8 -27 -1 -38 -4 -25 -6z"/>
<path d="M282 585 c0 -22 2 -32 5 -23 3 12 17 18 46 21 l42 4 -42 1 c-30 2
-43 7 -46 20 -3 9 -5 -1 -5 -23z"/>
<path d="M420 520 c0 -5 14 -10 30 -10 l30 0 0 -89 c0 -50 5 -93 10 -96 6 -4
10 28 10 89 l0 96 30 0 c17 0 30 5 30 10 0 6 -30 10 -70 10 -40 0 -70 -4 -70
-10z"/>
<path d="M590 425 l0 -105 60 0 c33 0 60 4 60 10 0 6 -25 10 -55 10 l-55 0 0
40 c0 40 0 40 40 40 22 0 40 5 40 10 0 6 -18 10 -40 10 -39 0 -40 1 -40 35 l0
35 55 0 c30 0 55 5 55 10 0 6 -27 10 -60 10 l-60 0 0 -105z"/>
<path d="M750 431 c0 -56 4 -103 10 -106 6 -4 10 13 10 44 0 49 1 51 28 51 22
0 32 -9 55 -51 16 -28 31 -49 33 -46 3 3 -6 25 -20 49 -25 44 -25 44 -6 61 27
22 25 62 -2 81 -12 9 -42 16 -65 16 l-43 0 0 -99z m110 60 c13 -25 13 -27 -6
-45 -8 -9 -31 -16 -50 -16 -33 0 -34 1 -34 40 0 40 0 40 40 40 29 0 42 -5 50
-19z"/>
<path d="M920 425 c0 -128 18 -142 22 -18 l3 88 31 -43 32 -43 33 47 34 46 6
-93 5 -94 2 108 c1 59 0 107 -2 107 -3 0 -19 -20 -37 -45 -18 -25 -36 -45 -40
-45 -3 0 -22 20 -40 45 -19 24 -37 45 -41 45 -5 0 -8 -47 -8 -105z"/>
<path d="M1144 425 c0 -60 1 -84 3 -52 2 32 2 81 0 110 -2 29 -3 3 -3 -58z"/>
<path d="M1200 424 c0 -76 3 -103 11 -98 8 5 10 33 6 90 -3 46 -4 84 -2 84 2
0 31 -38 65 -85 33 -46 65 -87 70 -90 6 -4 10 35 10 100 0 58 -4 104 -8 101
-5 -3 -6 -43 -4 -90 2 -48 3 -86 0 -86 -2 0 -33 40 -69 90 -35 49 -67 90 -71
90 -5 0 -8 -48 -8 -106z"/>
<path d="M1449 484 c-43 -100 -60 -147 -56 -158 2 -6 9 6 16 27 12 36 14 37
60 37 45 0 48 -2 65 -36 9 -20 19 -34 21 -32 4 4 -71 196 -81 207 -2 2 -13
-18 -25 -45z m55 -62 c7 -20 4 -22 -33 -22 -23 0 -41 2 -41 4 0 2 10 25 21 51
l21 48 13 -29 c7 -17 16 -40 19 -52z"/>
<path d="M1592 428 l-2 -108 54 0 c30 0 58 5 61 10 4 6 -15 10 -49 10 l-55 0
-4 98 -3 97 -2 -107z"/>
</g>
</svg>
